<?xml version="1.0" encoding="UTF-8"?>
<svg xmlns="http://www.w3.org/2000/svg" xmlns:xlink="http://www.w3.org/1999/xlink" width="48px" height="44px" viewBox="0 0 48 44" version="1.1">
<g id="surface1">
<path style=" stroke:none;fill-rule:nonzero;fill:rgb(52.54902%,73.72549%,14.117647%);fill-opacity:1;" d="M 33.996094 35.054688 C 33.996094 32.203125 36.292969 29.890625 39.117188 29.890625 C 41.945312 29.890625 44.238281 32.203125 44.238281 35.054688 C 44.238281 37.90625 41.945312 40.21875 39.117188 40.21875 C 36.292969 40.21875 33.996094 37.90625 33.996094 35.054688 "/>
<path style=" stroke:none;fill-rule:nonzero;fill:rgb(96.862745%,96.862745%,96.862745%);fill-opacity:1;" d="M 23.386719 21.375 C 23.386719 18.101562 22.761719 15.675781 21.507812 14.09375 C 20.25 12.515625 18.351562 11.726562 15.792969 11.726562 L 13.074219 11.726562 L 13.074219 31.734375 L 15.15625 31.734375 C 17.996094 31.734375 20.074219 30.882812 21.402344 29.179688 C 22.722656 27.480469 23.386719 24.875 23.386719 21.375 M 33.085938 21.035156 C 33.085938 26.996094 31.5 31.585938 28.320312 34.8125 C 25.144531 38.035156 20.675781 39.648438 14.917969 39.648438 L 3.726562 39.648438 L 3.726562 3.933594 L 15.699219 3.933594 C 21.25 3.933594 25.539062 5.398438 28.558594 8.332031 C 31.578125 11.261719 33.085938 15.496094 33.085938 21.035156 "/>
</g>
</svg>
