<?xml version="1.0" encoding="UTF-8" standalone="no"?>
<!-- Created with Inkscape (http://www.inkscape.org/) -->

<svg
   version="1.1"
   id="svg2"
   width="400"
   height="124.42667"
   viewBox="0 0 400 124.42667"
   sodipodi:docname="sdsu_monogram_cmyk_solid_red.eps"
   xmlns:inkscape="http://www.inkscape.org/namespaces/inkscape"
   xmlns:sodipodi="http://sodipodi.sourceforge.net/DTD/sodipodi-0.dtd"
   xmlns="http://www.w3.org/2000/svg"
   xmlns:svg="http://www.w3.org/2000/svg">
  <defs
     id="defs6" />
  <sodipodi:namedview
     id="namedview4"
     pagecolor="#ffffff"
     bordercolor="#000000"
     borderopacity="0.25"
     inkscape:showpageshadow="2"
     inkscape:pageopacity="0.0"
     inkscape:pagecheckerboard="0"
     inkscape:deskcolor="#d1d1d1" />
  <g
     id="g8"
     inkscape:groupmode="layer"
     inkscape:label="ink_ext_XXXXXX"
     transform="matrix(1.3333333,0,0,-1.3333333,0,124.42667)">
    <g
       id="g10"
       transform="scale(0.1)">
      <path
         d="m 1888.44,558.984 c -104.63,40.766 -154.23,64.715 -153.55,121.618 0.51,57.75 46.88,91.55 109.56,91.55 39.69,0 83.65,-13.328 132.24,-42.367 v -77.597 l 46.22,46.242 c 0.08,-0.059 0.15,-0.11 0.22,-0.164 l 121.96,121.953 c -88.5,72.355 -192.96,114.312 -304.89,112.953 -163.57,-1.867 -292.66,-113.973 -292.66,-260.727 0,-171.718 137.76,-235.582 275.68,-283.824 110.23,-38.215 158.64,-61.992 158.64,-129.086 0,-56.39 -43.99,-96.476 -131.13,-96.476 -51.65,0 -111.52,18.812 -166.51,58.836 v 87.281 l -50.69,-50.711 0.04,-0.039 -116.43,-116.43 C 1612.6,44.6719 1731.15,0 1847.67,0 c 149.14,0 322.73,81.5273 322.73,280.766 0,175.457 -124.68,216.902 -281.96,278.218"
         style="fill:#da1a38;fill-opacity:1;fill-rule:nonzero;stroke:none"
         id="path12" />
      <path
         d="M 371.297,558.984 C 266.672,599.75 217.07,623.699 217.754,680.602 c 0.504,57.75 46.879,91.55 109.555,91.55 39.687,0 83.656,-13.328 132.242,-42.367 v -77.597 l 46.219,46.242 c 0.074,-0.059 0.148,-0.11 0.222,-0.164 L 627.949,820.219 C 539.453,892.574 434.992,934.531 323.063,933.172 159.492,931.305 30.4023,819.199 30.4023,672.445 c 0,-171.718 137.7537,-235.582 275.6717,-283.824 110.235,-38.215 158.645,-61.992 158.645,-129.086 0,-56.39 -43.992,-96.476 -131.129,-96.476 -51.652,0 -111.524,18.812 -166.508,58.836 v 87.281 L 116.387,258.465 116.43,258.426 0,141.996 C 95.4609,44.6719 214.016,0 330.535,0 c 149.129,0 322.723,81.5273 322.723,280.766 0,175.457 -124.676,216.902 -281.961,278.218"
         style="fill:#da1a38;fill-opacity:1;fill-rule:nonzero;stroke:none"
         id="path14" />
      <path
         d="m 2747.54,922.543 71.98,-71.977 V 399.898 c 0,-145.386 -79.59,-230.613 -189.89,-230.613 -119.7,0 -186.74,99.641 -186.74,230.613 v 522.645 h -181.14 -71.68 l 71.68,-71.691 V 387.988 C 2261.75,139.195 2410.29,0.0820313 2629.63,0.0820313 2864.02,0.0820313 3000,151.09 3000,387.988 v 534.555 h -252.46"
         style="fill:#da1a38;fill-opacity:1;fill-rule:nonzero;stroke:none"
         id="path16" />
      <path
         d="m 1000.29,171.773 -76.341,0.02 v 589.074 h 87.621 c 164.19,0 282.01,-124.699 282.01,-295.781 0,-166.699 -115.93,-293.313 -293.29,-293.313 z m 7.52,750.79 H 745.969 v -0.02 H 674.656 L 745.969,851.23 745.977,82.0508 674.656,10.7305 h 71.321 0.375 265.228 c 293.29,0 469.39,185.4965 469.39,454.3555 0,269.477 -184.88,457.477 -473.16,457.477"
         style="fill:#da1a38;fill-opacity:1;fill-rule:nonzero;stroke:none"
         id="path18" />
    </g>
  </g>
</svg>
